<?xml version="1.0" encoding="utf-8"?>
<svg xmlns="http://www.w3.org/2000/svg" 
  xmlns:xlink="http://www.w3.org/1999/xlink">
  <symbol class="aicon" viewBox="0 0 1281 1024" id="credit" 
    xmlns="http://www.w3.org/2000/svg">
    <path d="M1154.576 588.914a18.629 18.629 0 01-12.374 22.98l-934.43 298.197a18.629 18.629 0 01-23.388-12.646L.816 322.128a18.9 18.9 0 0112.782-22.98L947.62.952a18.493 18.493 0 0123.388 12.646z" fill="#FFDA24"/>
    <path d="M31.954 419.487l63.501 199.614 972.096-303.364-63.637-199.613-971.96 303.363z" fill="#122C3D"/>
    <path d="M162.356 286.502h980.934q18.629 0 18.629 18.63v604.415q0 18.628-18.629 18.628H162.356q-18.629 0-18.629-18.628V305.13q0-18.629 18.629-18.629z" fill="#98D24D"/>
    <path d="M243.806 751.678h-17.541v19.717h17.54v49.767h19.717v-84.17h-19.716zm91.784 69.484h19.717v-69.484H335.59zm59.694-84.17H375.43v84.17h19.853v-49.767h24.067v-19.717h-24.067zm-112.86 84.17h19.852v-49.767h20.532v-19.717h-40.793zm346.603-69.484h-35.082v69.484h19.853v-49.767h15.23v49.767h19.852v-84.17h-19.853zm91.648 69.484h19.853v-69.484h-19.853zm138.152-84.17h-19.716v84.17h19.716v-49.767h24.068v-19.717h-24.068zm-190.367 84.17h19.717v-49.767h20.668v-19.717h-40.793zm282.152-69.484H914.85v69.484h19.716v-49.767h15.366v49.767h19.716v-84.17h-19.716zm91.784 0v69.484h19.716v-69.484zm-53.847 69.484h19.853v-49.767h20.532v-19.717h-40.793zm-190.367-69.484h-35.626v69.484h19.717v-49.767h15.365v49.767h19.717v-84.17h-19.717zm-257.268 69.484h19.717v-49.767h20.668v-19.717h-40.792zm-66.628-84.17h-19.717v84.17h19.717v-49.767h36.034v49.767h19.988v-69.484h-55.75z" fill="#83BA36"/>
    <path d="M465.991 449.538l-32.226 29.643-159.772 136.656-16.725 23.252 289.086 289.086h398.275L465.99 449.538z" fill="#84B94B"/>
    <path d="M470.75 625.492a18.493 18.493 0 01-18.492 18.629H270.865a18.629 18.629 0 01-18.629-18.63V462.32a18.629 18.629 0 0118.63-18.493h181.392a18.493 18.493 0 0118.493 18.493z" fill="#FFDA24"/>
    <path d="M762.556 751.678v69.484h19.717v-49.767h6.39l-20.396-19.717zm-288.27-14.685h-19.717v84.169h19.717v-49.767h36.034v49.767h19.988v-69.484h-55.75zm-79.002 0H375.43v20.26l19.853 19.717v-5.575h24.067v-19.717h-24.067zm325.391 84.169h19.853v-69.484h-19.853zm76.827-40.793v40.793h19.717v-20.26zm-256.724 40.793h19.717v-49.767h20.668v-19.717h-40.792zm126.867 0h19.716v-49.767h20.669v-19.717h-40.793zm-38.754-69.484h-34.946v69.484h19.853v-49.767h15.23v49.767h19.852v-84.17h-19.853z" fill="#72A537"/>
  </symbol>
  <symbol class="bicon" viewBox="0 0 1024 1024" id="tag" 
    xmlns="http://www.w3.org/2000/svg">
    <path d="M161.05 1024l16.813-7.015L495.006 884.78l16.934-7.015 16.812 7.015 317.143 132.204 16.933 7.015V121.075H161.051V1024z" fill="#98D24D"/>
    <path d="M558.99 414.39l99.546 16.692-69.79 72.935 14.756 99.787-90.837-43.906-90.353 44.995 13.668-100.03-70.637-72.088 99.303-17.901 46.568-89.507 47.777 89.023z" fill="#FFF"/>
    <path d="M844.443 0H179.194a18.385 18.385 0 00-18.143 18.264v102.69h701.535V18.264A18.385 18.385 0 00844.443 0z" fill="#122C3D"/>
    <path d="M528.752 856.115L511.94 849.1l-16.934 7.015L177.863 988.44l-16.812 7.016V1024l16.812-7.015L495.006 884.78l16.934-7.015 16.812 7.015 317.143 132.204 16.933 7.015v-28.545l-16.933-7.016-317.143-132.324z" fill="#78A82C"/>
    <path d="M658.536 431.082l-69.79 72.572 14.756 99.788-90.837-43.907-90.353 45.237L826.3 1008.76l19.716 8.225 16.933 7.015V635.373zm-49.954-7.742l-96.763-97.973 47.777 89.023z" fill="#78A82C"/>
  </symbol>
</svg>